<svg width="125" height="104" viewBox="0 0 125 104" fill="none" xmlns="http://www.w3.org/2000/svg">
<g filter="url(#filter0_di_78_57894)">
<path d="M35.8963 44.0748L52.0052 21.0705C52.9931 19.6596 52.6505 17.7129 51.239 16.7246C50.7932 16.4125 53.1864 18.0882 41.0149 9.56528C39.6032 8.57653 37.6575 8.91956 36.6689 10.3317C35.6804 11.7433 36.0234 13.689 37.4353 14.6776L39.9916 16.4674L25.6738 36.9168L35.8963 44.0748Z" fill="white"/>
<path d="M35.6416 55.3244C36.6301 53.9129 36.2873 51.967 34.8756 50.9784L22.0937 42.0278L9.56422 59.9203C8.57609 61.3328 8.91934 63.2779 10.3318 64.266L12.8875 66.0561L11.0974 68.6126C10.1088 70.0242 10.4519 71.9701 11.8636 72.9585C13.2754 73.947 15.2209 73.604 16.2095 72.1923L17.9989 69.6367L23.1108 73.2175C24.356 71.4399 22.6879 73.821 35.6416 55.3244Z" fill="white"/>
<path d="M53.275 79.1005C46.5411 74.3845 42.6676 70.1282 40.4667 66.9995C44.2278 66.883 47.1548 65.3332 47.3503 65.2271C48.8648 64.4054 49.4285 62.5123 48.6089 60.9958C47.7872 59.4813 45.8941 58.9176 44.3797 59.7393C44.3464 59.7559 42.0373 60.9438 39.4681 60.7378H39.4661C26.6644 79.0216 27.5542 77.7506 26.7327 78.9236C29.2311 83.7769 34.1177 90.5919 43.015 94.7109C44.3797 95.3433 46.0106 94.9147 46.8823 93.6707L54.0426 83.4462C55.0307 82.0336 54.6875 80.0886 53.275 79.1005Z" fill="white"/>
<path d="M88.6148 44.0748L72.506 21.0705C71.5181 19.6596 71.8607 17.7129 73.2721 16.7246C73.718 16.4125 71.3248 18.0882 83.4963 9.56528C84.908 8.57653 86.8537 8.91956 87.8422 10.3317C88.8308 11.7433 88.4877 13.689 87.0758 14.6776L84.5196 16.4674L98.8373 36.9168L88.6148 44.0748Z" fill="white"/>
<path d="M88.8697 55.3244C87.8811 53.9129 88.2239 51.967 89.6356 50.9784L102.417 42.0278L114.947 59.9203C115.935 61.3328 115.592 63.2779 114.179 64.266L111.624 66.0561L113.414 68.6126C114.402 70.0242 114.059 71.9701 112.648 72.9585C111.236 73.947 109.29 73.604 108.302 72.1923L106.512 69.6367L101.4 73.2175C100.155 71.4399 101.824 73.821 88.8697 55.3244Z" fill="white"/>
<path d="M71.2361 79.1005C77.97 74.3845 81.8435 70.1282 84.0444 66.9995C80.2833 66.883 77.3563 65.3332 77.1608 65.2271C75.6463 64.4054 75.0826 62.5123 75.9022 60.9958C76.7239 59.4813 78.617 58.9176 80.1314 59.7393C80.1647 59.7559 82.4738 60.9438 85.043 60.7378H85.045C97.8467 79.0216 96.9569 77.7506 97.7784 78.9236C95.28 83.7769 90.3934 90.5919 81.4961 94.7109C80.1314 95.3433 78.5005 94.9147 77.6288 93.6707L70.4685 83.4462C69.4804 82.0336 69.8236 80.0886 71.2361 79.1005Z" fill="white"/>
</g>
<defs>
<filter id="filter0_di_78_57894" x="0" y="0.000488281" width="124.511" height="104" filterUnits="userSpaceOnUse" color-interpolation-filters="sRGB">
<feFlood flood-opacity="0" result="BackgroundImageFix"/>
<feColorMatrix in="SourceAlpha" type="matrix" values="0 0 0 0 0 0 0 0 0 0 0 0 0 0 0 0 0 0 127 0" result="hardAlpha"/>
<feOffset/>
<feGaussianBlur stdDeviation="4.5"/>
<feComposite in2="hardAlpha" operator="out"/>
<feColorMatrix type="matrix" values="0 0 0 0 0.803922 0 0 0 0 0.392157 0 0 0 0 1 0 0 0 0.71 0"/>
<feBlend mode="normal" in2="BackgroundImageFix" result="effect1_dropShadow_78_57894"/>
<feBlend mode="normal" in="SourceGraphic" in2="effect1_dropShadow_78_57894" result="shape"/>
<feColorMatrix in="SourceAlpha" type="matrix" values="0 0 0 0 0 0 0 0 0 0 0 0 0 0 0 0 0 0 127 0" result="hardAlpha"/>
<feOffset/>
<feGaussianBlur stdDeviation="5.5"/>
<feComposite in2="hardAlpha" operator="arithmetic" k2="-1" k3="1"/>
<feColorMatrix type="matrix" values="0 0 0 0 0.803922 0 0 0 0 0.392157 0 0 0 0 1 0 0 0 0.73 0"/>
<feBlend mode="normal" in2="shape" result="effect2_innerShadow_78_57894"/>
</filter>
</defs>
</svg>
