<svg width="112" height="105" viewBox="0 0 112 105" fill="none" xmlns="http://www.w3.org/2000/svg">
<g filter="url(#filter0_di_154_22224)">
<path d="M97.4885 10.0005H14.5115C13.306 10.0268 12.1588 10.5281 11.3155 11.3969C10.4722 12.2658 10 13.4331 10 14.6487C10 15.8644 10.4722 17.0317 11.3155 17.9005C12.1588 18.7694 13.306 19.2706 14.5115 19.297V70.4221C14.5109 72.8863 15.481 75.2499 17.2084 76.9932C18.9358 78.7365 21.2791 79.7168 23.7232 79.7185H88.2682C89.4791 79.7188 90.6782 79.4786 91.797 79.0115C92.9158 78.5444 93.9323 77.8596 94.7886 76.9963C95.6448 76.133 96.324 75.108 96.7873 73.98C97.2505 72.852 97.4888 71.643 97.4885 70.4221V19.297C98.694 19.2706 99.8412 18.7694 100.685 17.9005C101.528 17.0317 102 15.8644 102 14.6487C102 13.4331 101.528 12.2658 100.685 11.3969C99.8412 10.5281 98.694 10.0268 97.4885 10.0005ZM74.1296 38.8659L54.5825 58.5744C54.1304 59.0342 53.5929 59.3997 53.0007 59.65C52.4084 59.9003 51.7731 60.0305 51.1309 60.0331C50.4888 60.0358 49.8524 59.9108 49.2582 59.6653C48.6639 59.4199 48.1235 59.0588 47.6677 58.6027L47.6396 58.5744L37.8682 48.7202C36.9791 47.7861 36.4886 46.5379 36.5018 45.2433C36.515 43.9488 37.0309 42.711 37.9388 41.7956C38.8468 40.8801 40.0744 40.36 41.3584 40.3467C42.6423 40.3334 43.8803 40.828 44.8067 41.7244L51.11 48.1297L67.1846 31.8702C67.6385 31.4027 68.1797 31.0306 68.7771 30.7754C69.3745 30.5202 70.0161 30.3869 70.6649 30.3834C71.3137 30.3798 71.9568 30.506 72.5569 30.7547C73.157 31.0033 73.7022 31.3695 74.1611 31.8319C74.6199 32.2944 74.9832 32.8441 75.23 33.449C75.4768 34.054 75.6022 34.7023 75.5988 35.3565C75.5955 36.0106 75.4636 36.6576 75.2106 37.26C74.9577 37.8624 74.5888 38.4082 74.1253 38.8659H74.1296ZM47.1491 85.6446L41.157 93.1741C40.7867 93.6646 40.3231 94.0756 39.7932 94.3831C39.2633 94.6906 38.6779 94.8883 38.0712 94.9647C37.4646 95.0412 36.8489 94.9947 36.2603 94.8282C35.6716 94.6616 35.1219 94.3783 34.6433 93.9947C34.1647 93.6112 33.7668 93.1352 33.473 92.5946C33.1791 92.0541 32.9953 91.4598 32.9322 90.8467C32.8691 90.2336 32.928 89.6139 33.1055 89.024C33.2829 88.4342 33.5754 87.8859 33.9657 87.4115L35.3486 85.6446H47.1491ZM77.2975 93.9236C76.8272 94.307 76.286 94.5921 75.7053 94.7623C75.1246 94.9326 74.5161 94.9845 73.9153 94.9152C73.3145 94.8458 72.7334 94.6565 72.2059 94.3583C71.6784 94.0602 71.2151 93.6591 70.843 93.1785L64.8509 85.6489H76.6514L78.0343 87.4159C78.788 88.3792 79.1335 89.6038 78.9955 90.8228C78.8574 92.0418 78.2471 93.1564 77.2975 93.9236Z" fill="white"/>
</g>
<defs>
<filter id="filter0_di_154_22224" x="0" y="0.000488281" width="112" height="105" filterUnits="userSpaceOnUse" color-interpolation-filters="sRGB">
<feFlood flood-opacity="0" result="BackgroundImageFix"/>
<feColorMatrix in="SourceAlpha" type="matrix" values="0 0 0 0 0 0 0 0 0 0 0 0 0 0 0 0 0 0 127 0" result="hardAlpha"/>
<feOffset/>
<feGaussianBlur stdDeviation="5"/>
<feComposite in2="hardAlpha" operator="out"/>
<feColorMatrix type="matrix" values="0 0 0 0 0.803922 0 0 0 0 0.392157 0 0 0 0 1 0 0 0 0.71 0"/>
<feBlend mode="normal" in2="BackgroundImageFix" result="effect1_dropShadow_154_22224"/>
<feBlend mode="normal" in="SourceGraphic" in2="effect1_dropShadow_154_22224" result="shape"/>
<feColorMatrix in="SourceAlpha" type="matrix" values="0 0 0 0 0 0 0 0 0 0 0 0 0 0 0 0 0 0 127 0" result="hardAlpha"/>
<feOffset/>
<feGaussianBlur stdDeviation="9.5"/>
<feComposite in2="hardAlpha" operator="arithmetic" k2="-1" k3="1"/>
<feColorMatrix type="matrix" values="0 0 0 0 0.803922 0 0 0 0 0.392157 0 0 0 0 1 0 0 0 1 0"/>
<feBlend mode="normal" in2="shape" result="effect2_innerShadow_154_22224"/>
</filter>
</defs>
</svg>
