<svg width="39" height="40" viewBox="0 0 39 40" fill="none" xmlns="http://www.w3.org/2000/svg">
<g filter="url(#filter0_di_418_9)">
<path d="M11.2513 5L5 11.3501V34.0034H27.3264L33.5799 27.6579V5H11.2513ZM26.5997 14.0444L24.2204 25.3614C24.0402 26.1616 23.5715 26.3582 22.9068 25.9821L19.2815 23.29L17.532 24.9876C17.3382 25.1831 17.176 25.3454 16.8031 25.3454L17.0633 21.6222L23.7844 15.4985C24.0773 15.2356 23.7213 15.0904 23.3338 15.3533L15.0253 20.6288L11.4485 19.4994C10.67 19.2548 10.6599 18.7141 11.6107 18.338L25.6016 12.9036C26.246 12.659 26.8126 13.0522 26.602 14.049L26.5997 14.0444Z" fill="white"/>
</g>
<defs>
<filter id="filter0_di_418_9" x="0" y="0" width="38.5798" height="39.0034" filterUnits="userSpaceOnUse" color-interpolation-filters="sRGB">
<feFlood flood-opacity="0" result="BackgroundImageFix"/>
<feColorMatrix in="SourceAlpha" type="matrix" values="0 0 0 0 0 0 0 0 0 0 0 0 0 0 0 0 0 0 127 0" result="hardAlpha"/>
<feOffset/>
<feGaussianBlur stdDeviation="2.5"/>
<feComposite in2="hardAlpha" operator="out"/>
<feColorMatrix type="matrix" values="0 0 0 0 0.803922 0 0 0 0 0.392157 0 0 0 0 1 0 0 0 0.69 0"/>
<feBlend mode="normal" in2="BackgroundImageFix" result="effect1_dropShadow_418_9"/>
<feBlend mode="normal" in="SourceGraphic" in2="effect1_dropShadow_418_9" result="shape"/>
<feColorMatrix in="SourceAlpha" type="matrix" values="0 0 0 0 0 0 0 0 0 0 0 0 0 0 0 0 0 0 127 0" result="hardAlpha"/>
<feOffset/>
<feGaussianBlur stdDeviation="4"/>
<feComposite in2="hardAlpha" operator="arithmetic" k2="-1" k3="1"/>
<feColorMatrix type="matrix" values="0 0 0 0 0.803922 0 0 0 0 0.392157 0 0 0 0 1 0 0 0 0.53 0"/>
<feBlend mode="normal" in2="shape" result="effect2_innerShadow_418_9"/>
</filter>
</defs>
</svg>
