<svg width="114" height="114" viewBox="0 0 114 114" fill="none" xmlns="http://www.w3.org/2000/svg">
<g filter="url(#filter0_di_154_22223)">
<path d="M101.789 68.9473L99.0531 67.1309L61.0267 92.3801C59.6867 93.2697 58.114 93.7443 56.5055 93.7443C54.897 93.7443 53.3243 93.2697 51.9843 92.3801L13.9542 67.1309L11.2186 68.9473C10.8439 69.1959 10.5365 69.5333 10.3239 69.9295C10.1113 70.3257 10 70.7683 10 71.218C10 71.6676 10.1113 72.1102 10.3239 72.5064C10.5365 72.9026 10.8439 73.24 11.2186 73.4886L54.996 102.552C55.4426 102.849 55.9667 103.007 56.5028 103.007C57.0388 103.007 57.5629 102.849 58.0096 102.552L101.787 73.4886C102.162 73.24 102.469 72.9026 102.682 72.5064C102.894 72.1102 103.006 71.6676 103.006 71.218C103.006 70.7683 102.894 70.3257 102.682 69.9295C102.469 69.5333 102.162 69.1959 101.787 68.9473H101.789Z" fill="white"/>
<path d="M101.789 54.2335L99.0531 52.417L61.0267 77.6662C59.6867 78.5559 58.114 79.0304 56.5055 79.0304C54.897 79.0304 53.3243 78.5559 51.9842 77.6662L13.9542 52.417L11.2186 54.2335C10.8439 54.482 10.5365 54.8194 10.3239 55.2156C10.1113 55.6118 10 56.0545 10 56.5041C10 56.9537 10.1113 57.3964 10.3239 57.7926C10.5365 58.1887 10.8439 58.5262 11.2186 58.7747L54.996 87.8386C55.4426 88.135 55.9667 88.2931 56.5028 88.2931C57.0388 88.2931 57.5629 88.135 58.0096 87.8386L101.787 58.7747C102.162 58.5263 102.469 58.189 102.682 57.7929C102.895 57.3968 103.006 56.9542 103.006 56.5046C103.007 56.0549 102.896 55.6123 102.683 55.216C102.471 54.8197 102.163 54.4822 101.789 54.2335Z" fill="white"/>
<path d="M11.2293 44.0596L55.0067 73.1234C55.4534 73.4199 55.9775 73.578 56.5135 73.578C57.0496 73.578 57.5737 73.4199 58.0203 73.1234L101.798 44.0596C102.172 43.8111 102.48 43.4737 102.692 43.0775C102.905 42.6813 103.016 42.2386 103.016 41.789C103.016 41.3394 102.905 40.8967 102.692 40.5005C102.48 40.1043 102.172 39.7669 101.798 39.5184L58.0203 10.4545C57.5737 10.1581 57.0496 10 56.5135 10C55.9775 10 55.4534 10.1581 55.0067 10.4545L11.2293 39.5184C10.8546 39.7669 10.5473 40.1043 10.3346 40.5005C10.122 40.8967 10.0107 41.3394 10.0107 41.789C10.0107 42.2386 10.122 42.6813 10.3346 43.0775C10.5473 43.4737 10.8546 43.8111 11.2293 44.0596ZM70.5377 51.4691C70.138 52.0709 69.5156 52.4894 68.8075 52.6325C68.0993 52.7756 67.3632 52.6315 66.7612 52.232L56.5053 45.4238L46.2494 52.232C45.9513 52.43 45.617 52.5673 45.2657 52.6361C44.9145 52.7049 44.5531 52.7039 44.2023 52.633C43.8514 52.5622 43.518 52.4229 43.221 52.2232C42.9239 52.0235 42.6691 51.7673 42.4711 51.4691C42.2731 51.1709 42.1358 50.8366 42.067 50.4854C41.9982 50.1341 41.9993 49.7728 42.0701 49.4219C42.1409 49.0711 42.2802 48.7376 42.4799 48.4406C42.6796 48.1435 42.9359 47.8888 43.2341 47.6908L54.9976 39.8799C55.4443 39.5834 55.9684 39.4253 56.5044 39.4253C57.0405 39.4253 57.5646 39.5834 58.0112 39.8799L69.7748 47.6908C70.0731 47.8887 70.3294 48.1434 70.5292 48.4405C70.729 48.7375 70.8683 49.071 70.9391 49.4218C71.01 49.7727 71.011 50.1341 70.9421 50.4854C70.8732 50.8367 70.7358 51.1709 70.5377 51.4691ZM32.1535 40.3358L55.0067 25.1699C55.4534 24.8735 55.9775 24.7154 56.5135 24.7154C57.0496 24.7154 57.5737 24.8735 58.0203 25.1699L80.8645 40.3358C81.1627 40.5337 81.4189 40.7883 81.6187 41.0853C81.8185 41.3822 81.9578 41.7155 82.0287 42.0663C82.0996 42.4171 82.1008 42.7784 82.0321 43.1296C81.9634 43.4808 81.8262 43.815 81.6283 44.1132C81.4305 44.4114 81.1758 44.6677 80.8788 44.8674C80.5819 45.0672 80.2486 45.2065 79.8978 45.2774C79.5471 45.3484 79.1857 45.3495 78.8345 45.2808C78.4833 45.2121 78.1491 45.0749 77.8509 44.877L56.5144 30.7084L35.1779 44.877C34.8797 45.075 34.5455 45.2123 34.1942 45.2812C33.843 45.35 33.4816 45.3489 33.1308 45.2781C32.7799 45.2072 32.4465 45.068 32.1494 44.8683C31.8524 44.6685 31.5976 44.4123 31.3996 44.1141C31.2016 43.8159 31.0643 43.4817 30.9955 43.1304C30.9267 42.7792 30.9277 42.4178 30.9986 42.0669C31.0694 41.7161 31.2087 41.3826 31.4084 41.0856C31.6081 40.7886 31.8644 40.5338 32.1626 40.3358H32.1535Z" fill="white"/>
</g>
<defs>
<filter id="filter0_di_154_22223" x="0" y="0" width="113.016" height="113.007" filterUnits="userSpaceOnUse" color-interpolation-filters="sRGB">
<feFlood flood-opacity="0" result="BackgroundImageFix"/>
<feColorMatrix in="SourceAlpha" type="matrix" values="0 0 0 0 0 0 0 0 0 0 0 0 0 0 0 0 0 0 127 0" result="hardAlpha"/>
<feOffset/>
<feGaussianBlur stdDeviation="5"/>
<feComposite in2="hardAlpha" operator="out"/>
<feColorMatrix type="matrix" values="0 0 0 0 0.803922 0 0 0 0 0.392157 0 0 0 0 1 0 0 0 0.71 0"/>
<feBlend mode="normal" in2="BackgroundImageFix" result="effect1_dropShadow_154_22223"/>
<feBlend mode="normal" in="SourceGraphic" in2="effect1_dropShadow_154_22223" result="shape"/>
<feColorMatrix in="SourceAlpha" type="matrix" values="0 0 0 0 0 0 0 0 0 0 0 0 0 0 0 0 0 0 127 0" result="hardAlpha"/>
<feOffset/>
<feGaussianBlur stdDeviation="7"/>
<feComposite in2="hardAlpha" operator="arithmetic" k2="-1" k3="1"/>
<feColorMatrix type="matrix" values="0 0 0 0 0.803922 0 0 0 0 0.392157 0 0 0 0 1 0 0 0 0.86 0"/>
<feBlend mode="normal" in2="shape" result="effect2_innerShadow_154_22223"/>
</filter>
</defs>
</svg>
