<svg width="120" height="120" viewBox="0 0 120 120" fill="none" xmlns="http://www.w3.org/2000/svg">
<g filter="url(#filter0_di_145_22208)">
<path d="M59.9973 38.6737C55.7779 38.6716 51.6526 39.9209 48.1432 42.2638C44.6339 44.6066 41.8981 47.9376 40.2821 51.8356C38.666 55.7335 38.2422 60.0231 39.0643 64.162C39.8863 68.3008 41.9173 72.1028 44.9004 75.0871C47.8834 78.0715 51.6845 80.104 55.8228 80.9277C59.9611 81.7514 64.2506 81.3292 68.149 79.7145C72.0473 78.0998 75.3792 75.3652 77.7232 71.8565C80.0673 68.3479 81.3181 64.2229 81.3176 60.0032C81.3112 54.3496 79.0631 48.9293 75.0664 44.9309C71.0697 40.9324 65.6506 38.6822 59.9973 38.6737ZM67.1525 69.457C65.2066 70.9802 62.8224 71.8369 60.3521 71.9004C60.2365 71.9004 60.1183 71.9004 59.9973 71.9004C59.8764 71.9004 59.7581 71.9004 59.5968 71.8869C56.8586 71.7927 54.2413 70.7363 52.2048 68.9034C50.1682 67.0704 48.8429 64.5784 48.4616 61.865C48.0804 59.1517 48.6676 56.3909 50.1202 54.0676C51.5727 51.7444 53.7976 50.0076 56.4037 49.1623C59.0099 48.317 61.8306 48.4174 64.3701 49.4458C66.9096 50.4742 69.0054 52.3649 70.2891 54.7855C71.5728 57.2061 71.9623 60.0017 71.3891 62.6811C70.8159 65.3604 69.3168 67.752 67.1551 69.4355L67.1525 69.457ZM105.345 50.3263L99.0737 49.6623C98.6978 49.622 98.3417 49.4735 98.0483 49.235C97.7549 48.9965 97.5369 48.6781 97.4207 48.3183C96.7071 46.0967 95.7968 43.9431 94.7006 41.8832C94.5205 41.5441 94.4439 41.1596 94.4802 40.7773C94.5165 40.3951 94.6641 40.0319 94.9048 39.7328L98.9017 34.7868C99.7102 33.7897 100.12 32.5282 100.053 31.2463C99.9853 29.9643 99.445 28.7529 98.5362 27.8463L92.1578 21.4703C91.253 20.56 90.0426 20.0178 88.761 19.9487C87.4794 19.8797 86.2177 20.2888 85.2204 21.0967L80.1672 25.1825C79.8707 25.4216 79.511 25.5693 79.1321 25.6075C78.7531 25.6456 78.3712 25.5727 78.033 25.3975C76.0116 24.3515 73.9025 23.4844 71.7299 22.8063C71.3653 22.6923 71.0419 22.4745 70.7994 22.1794C70.5568 21.8843 70.4057 21.5248 70.3645 21.1451L69.671 14.6454C69.5379 13.3689 68.9358 12.1872 67.9814 11.3291C67.0271 10.471 65.7883 9.99758 64.5049 10.0005H55.487C54.2032 9.99691 52.9637 10.47 52.0088 11.3282C51.0538 12.1863 50.4514 13.3684 50.3182 14.6454L49.6301 21.1343C49.5898 21.5147 49.439 21.8749 49.1963 22.1705C48.9537 22.4662 48.6298 22.6844 48.2647 22.7982C46.0914 23.4801 43.9815 24.3498 41.9589 25.3975C41.6209 25.5715 41.2396 25.6437 40.8614 25.6056C40.4831 25.5674 40.124 25.4204 39.8274 25.1825L34.7688 21.0967C33.7723 20.287 32.5107 19.8761 31.2284 19.9436C29.9462 20.0111 28.7347 20.5523 27.8287 21.4622L21.4504 27.8382C20.5409 28.7438 19.9997 29.9546 19.9317 31.2363C19.8636 32.518 20.2736 33.7793 21.0822 34.7761L25.0817 39.722C25.3231 40.0208 25.4711 40.3841 25.5074 40.7665C25.5438 41.1489 25.4667 41.5335 25.286 41.8724C24.189 43.9372 23.2796 46.0963 22.5686 48.3237C22.452 48.6833 22.2339 49.0015 21.9406 49.24C21.6473 49.4785 21.2913 49.627 20.9155 49.6677L14.6581 50.329C13.3785 50.4609 12.1935 51.0633 11.3329 52.0193C10.4722 52.9754 9.99723 54.217 10 55.5034V64.5217C10.002 65.8043 10.4793 67.0407 11.3396 67.9919C12.1999 68.9431 13.3822 69.5417 14.6581 69.672L20.7408 70.3171C21.1229 70.357 21.4847 70.5089 21.7807 70.7538C22.0767 70.9986 22.2938 71.3255 22.4046 71.6934C23.1018 74.0027 24.0115 76.2425 25.122 78.3839C25.2971 78.7212 25.37 79.1023 25.3318 79.4804C25.2936 79.8585 25.146 80.2173 24.907 80.5128L21.101 85.2222C20.2922 86.2194 19.8822 87.4812 19.9502 88.7633C20.0182 90.0454 20.5595 91.2567 21.4692 92.1627L27.8287 98.5387C28.7349 99.4474 29.9457 99.9877 31.2272 100.055C32.5086 100.123 33.7696 99.7127 34.7662 98.9043L39.3866 95.1948C39.6852 94.953 40.0483 94.8045 40.4306 94.7677C40.813 94.7309 41.1978 94.8074 41.5369 94.9878C43.7151 96.1497 45.9983 97.1029 48.3561 97.8344C48.7202 97.9476 49.0431 98.165 49.2848 98.4598C49.5266 98.7546 49.6765 99.1138 49.7162 99.493L50.3317 105.353C50.4648 106.63 51.0667 107.812 52.021 108.67C52.9753 109.529 54.2142 110.003 55.4978 110H64.5156C65.8001 110.005 67.0402 109.531 67.9954 108.672C68.9505 107.814 69.5525 106.631 69.6844 105.353L70.2973 99.4903C70.3369 99.1111 70.4869 98.7519 70.7286 98.4571C70.9704 98.1623 71.2933 97.9449 71.6573 97.8318C74.0149 97.1006 76.298 96.1484 78.4765 94.9878C78.8152 94.8064 79.2 94.729 79.5825 94.7653C79.965 94.8017 80.3283 94.9501 80.6268 95.1921L85.2285 98.9123C86.2251 99.721 87.4864 100.131 88.768 100.063C90.0496 99.9949 91.2604 99.4537 92.1659 98.5441L98.5442 92.1681C99.4536 91.2618 99.9943 90.0503 100.062 88.7682C100.129 87.486 99.7189 86.2245 98.9098 85.2276L95.1037 80.5182C94.8651 80.2225 94.7177 79.8638 94.6795 79.4857C94.6413 79.1077 94.714 78.7267 94.8887 78.3893C95.9997 76.249 96.9095 74.0101 97.6062 71.7015C97.7166 71.3334 97.9336 71.0063 98.2297 70.7614C98.5258 70.5165 98.8877 70.3647 99.27 70.3252L105.353 69.6801C106.628 69.5465 107.809 68.9451 108.667 67.992C109.526 67.0389 110 65.8017 110 64.5191V55.5034C110.004 54.2168 109.53 52.9745 108.67 52.0178C107.809 51.0611 106.624 50.4583 105.345 50.3263ZM59.9973 89.3994C54.1831 89.4016 48.4989 87.6793 43.6636 84.4505C38.8282 81.2217 35.059 76.6314 32.8325 71.2601C30.606 65.8888 30.0224 59.9779 31.1554 54.2748C32.2884 48.5718 35.0871 43.3329 39.1976 39.2207C43.3081 35.1085 48.5457 32.3077 54.248 31.1725C59.9503 30.0374 65.8611 30.6189 71.2329 32.8435C76.6047 35.0682 81.1962 38.836 84.4266 43.6704C87.657 48.5048 89.3812 54.1887 89.3812 60.0032C89.3727 67.7951 86.2745 75.2655 80.7661 80.7762C75.2577 86.2869 67.7888 89.388 59.9973 89.3994Z" fill="white"/>
</g>
<defs>
<filter id="filter0_di_145_22208" x="0" y="0.000488281" width="120" height="120" filterUnits="userSpaceOnUse" color-interpolation-filters="sRGB">
<feFlood flood-opacity="0" result="BackgroundImageFix"/>
<feColorMatrix in="SourceAlpha" type="matrix" values="0 0 0 0 0 0 0 0 0 0 0 0 0 0 0 0 0 0 127 0" result="hardAlpha"/>
<feOffset/>
<feGaussianBlur stdDeviation="5"/>
<feComposite in2="hardAlpha" operator="out"/>
<feColorMatrix type="matrix" values="0 0 0 0 0.803922 0 0 0 0 0.392157 0 0 0 0 1 0 0 0 0.71 0"/>
<feBlend mode="normal" in2="BackgroundImageFix" result="effect1_dropShadow_145_22208"/>
<feBlend mode="normal" in="SourceGraphic" in2="effect1_dropShadow_145_22208" result="shape"/>
<feColorMatrix in="SourceAlpha" type="matrix" values="0 0 0 0 0 0 0 0 0 0 0 0 0 0 0 0 0 0 127 0" result="hardAlpha"/>
<feOffset/>
<feGaussianBlur stdDeviation="5"/>
<feComposite in2="hardAlpha" operator="arithmetic" k2="-1" k3="1"/>
<feColorMatrix type="matrix" values="0 0 0 0 0.803922 0 0 0 0 0.392157 0 0 0 0 1 0 0 0 1 0"/>
<feBlend mode="normal" in2="shape" result="effect2_innerShadow_145_22208"/>
</filter>
</defs>
</svg>
