<svg width="132" height="19" viewBox="0 0 132 19" fill="none" xmlns="http://www.w3.org/2000/svg">
<path d="M14.7832 0.130356V4.88819H9.7681V18.4448H4.98243V4.88819H0V0.130356H14.7832Z" fill="white"/>
<path d="M27.7636 4.88819H20.8473V6.94123H27.7636V11.6665H20.8473V13.7195H27.7636V18.4448H16.0615V0.130356H27.7636V4.88819Z" fill="white"/>
<path d="M40.744 18.4448L39.9574 15.577H34.8111L34.0244 18.4448H29.0093L34.0244 0.130356H40.5802L45.5298 18.4448H40.744ZM36.1223 10.754H38.6462L37.4006 6.12653L36.1223 10.754Z" fill="white"/>
<path d="M61.3618 0.130356H66.1475V18.4448H61.3618V11.5361L58.5101 18.4448H54.4783L51.9544 11.5361V18.4448H47.1687V0.130356H51.9544L56.7073 11.4384L61.3618 0.130356Z" fill="white"/>
<path d="M76.0466 0C76.9711 0.00158936 77.8856 0.190068 78.7345 0.553988C79.5475 0.893203 80.2832 1.39197 80.8978 2.02045C81.5279 2.6526 82.0387 3.39214 82.4057 4.20384C82.779 5.0455 82.9689 5.9562 82.9629 6.87605C82.9613 7.79513 82.7717 8.70429 82.4057 9.54826C82.0223 10.3507 81.5133 11.0876 80.8978 11.7316C80.2832 12.3601 79.5475 12.8589 78.7345 13.1981C77.8856 13.562 76.9711 13.7505 76.0466 13.7521H74.3093V18.7706H69.2942V0H76.0466ZM76.0466 8.8965C76.3096 8.90097 76.5706 8.85115 76.8133 8.75018C77.0559 8.64921 77.2747 8.4993 77.4561 8.30991C77.6475 8.12348 77.7985 7.90012 77.9 7.65355C78.0015 7.40698 78.0512 7.14241 78.0461 6.87605C78.0512 6.60969 78.0015 6.3451 77.9 6.09853C77.7985 5.85196 77.6475 5.62861 77.4561 5.44217C77.2747 5.25279 77.0559 5.10287 76.8133 5.00191C76.5706 4.90094 76.3096 4.85112 76.0466 4.85559H74.3093V8.8965H76.0466Z" fill="white"/>
<path d="M89.1909 14.0128H96.5006V18.8684H84.3069V0H89.1909V14.0128Z" fill="white"/>
<path d="M109.776 18.7706L109.022 15.8051H103.712L102.925 18.7706H97.8445L102.991 0H109.776L114.857 18.7706H109.776ZM105.089 10.754H107.678L106.367 5.99617L105.089 10.754Z" fill="white"/>
<path d="M126.1 0H132L124.985 11.5361V18.7706H119.446V11.5361L112.398 0H118.298L122.199 6.51758L126.1 0Z" fill="white"/>
</svg>
